<svg width="1000" height="1000" xmlns="http://www.w3.org/2000/svg">
 <style type="text/css">.st0{fill:#91CE74;}
	.st1{fill:#EEF2F4;}
	.st2{opacity:0.4;}
	.st3{fill:none;stroke:#424242;stroke-width:6;stroke-miterlimit:10;}
	.st4{fill:#424242;stroke:#424242;stroke-width:6;stroke-miterlimit:10;}
	.st5{fill:#FFFFFF;}
	.st6{fill:#D8D8D8;}
	.st7{fill:none;stroke:#30292C;stroke-width:4;stroke-linecap:round;stroke-linejoin:round;stroke-miterlimit:10;}
	.st8{fill:#FF415B;}
	.st9{fill:#EC1CE4;}
	.st10{fill:none;stroke:#133B4F;stroke-width:4;stroke-linecap:round;stroke-linejoin:round;stroke-miterlimit:10;}
	.st11{fill:#67CC70;}
	.st12{fill:#30292C;}
	.st13{fill:#CE7867;}
	.st14{fill:#5CECFF;}
	.st15{fill:#CCCCCC;}
	.st16{fill:#8E5645;}
	.st17{fill:#AE6553;}
	.st18{fill:#FFC25D;}
	.st19{fill:#00C899;}
	.st20{fill:#959595;}
	.st21{fill:#00B2C8;}
	.st22{fill:none;stroke:#30292C;stroke-width:8;stroke-linecap:round;stroke-linejoin:round;stroke-miterlimit:10;}</style>

 <g>
  <title>background</title>
  <rect fill="none" id="canvas_background" height="602" width="802" y="-1" x="-1"/>
 </g>
 <g>
  <title>Layer 1</title>
  <rect height="1000" width="1000" class="st0" id="XMLID_202_"/>
  <g class="st2" id="XMLID_1_">
   <g id="XMLID_253_">
    <g id="XMLID_254_">
     <g id="XMLID_255_">
      <polygon points="270.5,228.1 304,286.1 270.5,344.1 203.6,344.1 170.1,286.1 203.6,228.1     " class="st3" id="XMLID_256_"/>
     </g>
    </g>
   </g>
   <g id="XMLID_238_">
    <g id="XMLID_246_">
     <g id="XMLID_249_">
      <polygon points="386.5,295 419.9,353 386.5,411 319.6,411 286.1,353 319.6,295     " class="st4" id="XMLID_250_"/>
     </g>
     <g id="XMLID_247_">
      <polygon points="386.5,428.8 419.9,486.8 386.5,544.8 319.6,544.8 286.1,486.8 319.6,428.8     " class="st3" id="XMLID_248_"/>
     </g>
    </g>
    <g id="XMLID_239_">
     <g id="XMLID_244_">
      <polygon points="502.5,228.1 535.9,286.1 502.5,344.1 435.6,344.1 402.1,286.1 435.6,228.1     " class="st3" id="XMLID_245_"/>
     </g>
     <g id="XMLID_241_">
      <polygon points="502.5,361.9 535.9,419.9 502.5,477.9 435.6,477.9 402.1,419.9 435.6,361.9     " class="st4" id="XMLID_243_"/>
     </g>
    </g>
   </g>
   <g id="XMLID_98_">
    <g id="XMLID_143_">
     <g id="XMLID_236_">
      <polygon points="618.4,161.2 651.9,219.2 618.4,277.2 551.5,277.2 518.1,219.2 551.5,161.2     " class="st4" id="XMLID_237_"/>
     </g>
     <g id="XMLID_234_">
      <polygon points="618.4,295 651.9,353 618.4,411 551.5,411 518.1,353 551.5,295     " class="st3" id="XMLID_235_"/>
     </g>
     <g id="XMLID_144_">
      <polygon points="618.4,428.8 651.9,486.8 618.4,544.8 551.5,544.8 518.1,486.8 551.5,428.8     " class="st3" id="XMLID_233_"/>
     </g>
    </g>
    <g id="XMLID_126_">
     <g id="XMLID_129_">
      <polygon points="734.4,361.9 767.9,419.9 734.4,477.9 667.5,477.9 634.1,419.9 667.5,361.9     " class="st4" id="XMLID_130_"/>
     </g>
    </g>
   </g>
   <g id="XMLID_79_">
    <g id="XMLID_81_">
     <g id="XMLID_87_">
      <polygon points="850.4,161.2 883.9,219.2 850.4,277.2 783.5,277.2 750,219.2 783.5,161.2     " class="st4" id="XMLID_93_"/>
     </g>
     <g id="XMLID_82_">
      <polygon points="850.4,295 883.9,353 850.4,411 783.5,411 750,353 783.5,295     " class="st3" id="XMLID_86_"/>
     </g>
    </g>
   </g>
  </g>
  <g id="svg_108">
   <path d="m850,766l0,0c-10.5,0 -19,-8.5 -19,-19l0,-149l38,0l0,149c0,10.5 -8.5,19 -19,19z" class="st5" id="XMLID_116_"/>
   <path d="m872,582l-44,0c-4.4,0 -8,3.6 -8,8l0,0c0,4.4 3.6,8 8,8l44,0c4.4,0 8,-3.6 8,-8l0,0c0,-4.4 -3.6,-8 -8,-8z" class="st6" id="XMLID_114_"/>
   <path d="m850,766l0,0c-10.5,0 -19,-8.5 -19,-19l0,-149l38,0l0,149c0,10.5 -8.5,19 -19,19z" class="st7" id="XMLID_96_"/>
   <path d="m872,582l-44,0c-4.4,0 -8,3.6 -8,8l0,0c0,4.4 3.6,8 8,8l44,0c4.4,0 8,-3.6 8,-8l0,0c0,-4.4 -3.6,-8 -8,-8z" class="st7" id="XMLID_95_"/>
   <path d="m840,693l0,54c0,5.5 4.5,10 10,10s10,-4.5 10,-10l0,-54l-20,0z" class="st8" id="XMLID_113_"/>
   <path d="m840,693l0,54c0,5.5 4.5,10 10,10s10,-4.5 10,-10l0,-54l-20,0z" class="st7" id="XMLID_107_"/>
   <circle r="3.2" cy="559.8" cx="845" class="st9" id="XMLID_145_"/>
   <circle r="7.2" cy="524.3" cx="832.5" class="st8" id="XMLID_148_"/>
   <circle r="6.2" cy="551.9" cx="866.4" class="st8" id="XMLID_149_"/>
   <circle r="3.2" cy="559.8" cx="845" class="st10" id="XMLID_128_"/>
   <circle r="2.1" cy="538.5" cx="852" class="st10" id="XMLID_127_"/>
   <circle r="7.2" cy="524.3" cx="832.5" class="st10" id="XMLID_85_"/>
   <circle r="6.2" cy="551.9" cx="866.4" class="st10" id="XMLID_84_"/>
   <circle r="7.2" cy="653.4" cx="846.5" class="st8" id="XMLID_140_"/>
   <circle r="7.2" cy="653.4" cx="846.5" class="st7" id="XMLID_134_"/>
   <circle r="3.1" cy="678.1" cx="852.8" class="st8" id="XMLID_153_"/>
   <circle r="3.1" cy="678.1" cx="852.8" class="st7" id="XMLID_80_"/>
   <circle r="4.3" cy="612" cx="856.8" class="st8" id="XMLID_165_"/>
   <circle r="4.3" cy="612" cx="856.8" class="st7" id="XMLID_162_"/>
   <circle r="1.6" cy="605.3" cx="841.8" class="st11" id="XMLID_169_"/>
   <circle r="1.6" cy="605.3" cx="841.8" class="st7" id="XMLID_167_"/>
   <circle r="1.6" cy="708.6" cx="851.2" class="st12" id="XMLID_75_"/>
   <circle r="2.6" cy="725.4" cx="842.6" class="st12" id="XMLID_156_"/>
   <circle r="3.8" cy="738.4" cx="854.3" class="st12" id="XMLID_72_"/>
   <circle r="0.6" cy="703.9" cx="848.7" class="st12" id="XMLID_70_"/>
  </g>
  <g id="svg_109">
   <path d="m782.1,766l0,0c-10.5,0 -19,-8.5 -19,-19l0,-149l38,0l0,149c0,10.5 -8.5,19 -19,19z" class="st5" id="XMLID_110_"/>
   <path d="m782.1,766l0,0c-10.5,0 -19,-8.5 -19,-19l0,-149l38,0l0,149c0,10.5 -8.5,19 -19,19z" class="st7" id="XMLID_69_"/>
   <rect height="35.7" width="31.5" class="st13" y="562.3" x="766.4" id="XMLID_112_"/>
   <rect height="35.7" width="31.5" class="st7" y="562.3" x="766.4" id="XMLID_111_"/>
   <path d="m804.1,582l-44,0c-4.4,0 -8,3.6 -8,8l0,0c0,4.4 3.6,8 8,8l44,0c4.4,0 8,-3.6 8,-8l0,0c0,-4.4 -3.6,-8 -8,-8z" class="st6" id="XMLID_68_"/>
   <path d="m804.1,582l-44,0c-4.4,0 -8,3.6 -8,8l0,0c0,4.4 3.6,8 8,8l44,0c4.4,0 8,-3.6 8,-8l0,0c0,-4.4 -3.6,-8 -8,-8z" class="st7" id="XMLID_67_"/>
   <path d="m772.1,640l0,107c0,5.5 4.5,10 10,10s10,-4.5 10,-10l0,-107l-20,0z" class="st14" id="XMLID_104_"/>
   <path d="m772.1,640l0,107c0,5.5 4.5,10 10,10s10,-4.5 10,-10l0,-107l-20,0z" class="st7" id="XMLID_125_"/>
   <circle r="3" cy="670" cx="775.8" class="st12" id="XMLID_66_"/>
   <g id="svg_110">
    <circle r="5" cy="616.8" cx="775.8" class="st14" id="XMLID_122_"/>
    <circle r="5" cy="616.8" cx="775.8" class="st7" id="XMLID_137_"/>
   </g>
   <circle r="2" cy="686" cx="788.4" class="st12" id="XMLID_147_"/>
   <circle r="1.8" cy="738.4" cx="780.5" class="st12" id="XMLID_139_"/>
   <circle r="2.9" cy="728.2" cx="781.5" class="st12" id="XMLID_142_"/>
  </g>
  <g id="svg_111">
   <path id="svg_112" d="m367.6,683l0,0c-1.7,0 -3.1,-1.4 -3.1,-3.1l0,-10.9l-24,0l0,10.9c0,1.7 -1.4,3.1 -3.1,3.1l-1,0c-6.9,0 -12.4,5.6 -12.4,12.4l0,63.3c0,6 4.8,10.8 10.8,10.8l34.4,0c6,0 10.8,-4.8 10.8,-10.8l0,-63.3c0,-6.8 -5.6,-12.4 -12.4,-12.4z" class="st5"/>
   <path id="svg_113" d="m367.6,683l0,0c-1.7,0 -3.1,-1.4 -3.1,-3.1l0,-10.9l-24,0l0,10.9c0,1.7 -1.4,3.1 -3.1,3.1l-1,0c-6.9,0 -12.4,5.6 -12.4,12.4l0,63.3c0,6 4.8,10.8 10.8,10.8l34.4,0c6,0 10.8,-4.8 10.8,-10.8l0,-63.3c0,-6.8 -5.6,-12.4 -12.4,-12.4z" class="st7"/>
   <path id="svg_114" d="m332,669l0,-9.8c0,-2.3 1.9,-4.2 4.2,-4.2l33.6,0c2.3,0 4.2,1.9 4.2,4.2l0,9.8" class="st15"/>
   <path id="svg_115" d="m374,669l-42,0l0,-9.8c0,-2.3 1.9,-4.2 4.2,-4.2l33.6,0c2.3,0 4.2,1.9 4.2,4.2l0,9.8l0,0z" class="st7"/>
   <path id="svg_116" d="m371.9,700c-0.3,-2.2 -2.1,-4 -4.4,-4c-0.9,0 -1.8,0.3 -2.5,0.8c-0.1,-3.8 -3.2,-6.8 -7,-6.8c-3.9,0 -7,3.1 -7,7c0,1.1 0,2 0,1.5c0,-3 -2.5,-5.5 -5.5,-5.5s-5.5,2.5 -5.5,5.5c0,0.5 -1,1.2 -1,1c0,-1.9 -1.6,-3.5 -3.5,-3.5s-3.5,1.6 -3.5,3.5c0,0.2 0,0.3 0.1,0.5l-0.1,0l0,58.7c0,1.5 1.2,2.8 2.8,2.8l34.4,0c1.5,0 2.8,-1.2 2.8,-2.8l-0.1,-58.7l0,0z" class="st14"/>
   <circle r="2.9" cy="712.1" cx="341.7" class="st12" id="XMLID_221_"/>
   <circle r="1.1" cy="726.3" cx="352.9" class="st12" id="XMLID_222_"/>
   <circle r="1.1" cy="682.3" cx="351.9" class="st12" id="XMLID_226_"/>
   <circle r="0.6" cy="685.8" cx="345.4" class="st12" id="XMLID_227_"/>
   <circle r="1.6" cy="747.8" cx="362.4" class="st12" id="XMLID_224_"/>
   <circle r="1.1" cy="711.3" cx="359.9" class="st12" id="XMLID_225_"/>
   <path id="svg_117" d="m371.9,700c-0.3,-2.2 -2.1,-4 -4.4,-4c-0.9,0 -1.8,0.3 -2.5,0.8c-0.1,-3.8 -3.2,-6.8 -7,-6.8c-3.9,0 -7,3.1 -7,7c0,1.1 0,2 0,1.5c0,-3 -2.5,-5.5 -5.5,-5.5s-5.5,2.5 -5.5,5.5c0,0.5 -1,1.2 -1,1c0,-1.9 -1.6,-3.5 -3.5,-3.5s-3.5,1.6 -3.5,3.5c0,0.2 0,0.3 0.1,0.5l-0.1,0l0,58.7c0,1.5 1.2,2.8 2.8,2.8l34.4,0c1.5,0 2.8,-1.2 2.8,-2.8l-0.1,-58.7l0,0z" class="st7"/>
  </g>
  <g id="svg_118">
   <path id="svg_119" d="m660.2,728l-227,0c-7.7,0 -14,6.3 -14,14l0,14c0,7.7 6.3,14 14,14l10.3,0c2.3,-7.5 9.3,-13 17.6,-13l171.2,0c8.3,0 15.3,5.5 17.6,13l10.3,0c7.7,0 14,-6.3 14,-14l0,-14c0,-7.7 -6.2,-14 -14,-14z" class="st15"/>
   <path id="svg_120" d="m660.2,728l-227,0c-7.7,0 -14,6.3 -14,14l0,14c0,7.7 6.3,14 14,14l10.3,0c2.3,-7.5 9.3,-13 17.6,-13l171.2,0c8.3,0 15.3,5.5 17.6,13l10.3,0c7.7,0 14,-6.3 14,-14l0,-14c0,-7.7 -6.2,-14 -14,-14z" class="st7"/>
  </g>
  <g id="svg_121">
   <path id="svg_122" d="m280.2,614l0,0c-9.4,0 -17,-7.6 -17,-17l0,-15l-40,0l0,15c0,9.4 -7.6,17 -17,17l0,0c-13.3,0 -24,10.7 -24,24l0,108c0,13.3 10.7,24 24,24l74,0c13.3,0 24,-10.7 24,-24l0,-108c0,-13.3 -10.8,-24 -24,-24z" class="st5"/>
   <g id="svg_123">
    <circle r="3.5" cy="642.5" cx="255" class="st8" id="XMLID_220_"/>
    <circle r="3.5" cy="642.5" cx="255" class="st7" id="XMLID_219_"/>
   </g>
   <path id="svg_124" d="m190.2,645l0,101c0,8.8 7.2,16 16,16l74,0c8.8,0 16,-7.2 16,-16l0,-101l-106,0z" class="st8"/>
   <path id="svg_125" d="m280.2,614l0,0c-9.4,0 -17,-7.6 -17,-17l0,-15l-40,0l0,15c0,9.4 -7.6,17 -17,17l0,0c-13.3,0 -24,10.7 -24,24l0,108c0,13.3 10.7,24 24,24l74,0c13.3,0 24,-10.7 24,-24l0,-108c0,-13.3 -10.8,-24 -24,-24z" class="st7"/>
   <rect id="svg_126" height="28" width="58" class="st16" y="566" x="214.2"/>
   <rect id="svg_127" height="28" width="6" class="st17" y="566" x="219"/>
   <rect id="svg_128" height="28" width="6" class="st17" y="566" x="233.3"/>
   <rect id="svg_129" height="28" width="6" class="st17" y="566" x="247.7"/>
   <rect id="svg_130" height="28" width="6" class="st17" y="566" x="262"/>
   <path id="svg_131" d="m269,566l-51.7,0l0,-2.3c0,-3.7 3,-6.7 6.7,-6.7l38.3,0c3.7,0 6.7,3 6.7,6.7l0,2.3z" class="st16"/>
   <rect id="svg_132" height="28" width="58" class="st7" y="566" x="214.2"/>
   <path id="svg_133" d="m269,566l-51.7,0l0,-2.3c0,-3.7 3,-6.7 6.7,-6.7l38.3,0c3.7,0 6.7,3 6.7,6.7l0,2.3z" class="st7"/>
   <path id="svg_134" d="m190.2,645l0,101c0,8.8 7.2,16 16,16l74,0c8.8,0 16,-7.2 16,-16l0,-101l-106,0z" class="st7"/>
   <rect id="svg_135" height="56" width="76" class="st18" y="659" x="205.2"/>
   <rect id="svg_136" height="56" width="76" class="st7" y="659" x="205.2"/>
   <circle r="1.6" cy="720.5" cx="198.5" class="st12" id="XMLID_208_"/>
   <circle r="2.6" cy="730.3" cx="227.9" class="st12" id="XMLID_205_"/>
   <circle r="3.8" cy="743.3" cx="239.6" class="st12" id="XMLID_203_"/>
   <circle r="3.8" cy="730.3" cx="275.6" class="st12" id="XMLID_209_"/>
   <line id="svg_137" y2="674" x2="269" y1="674" x1="218" class="st7"/>
   <line id="svg_138" y2="687" x2="269" y1="687" x1="241" class="st7"/>
   <line id="svg_139" y2="698" x2="269" y1="698" x1="241" class="st7"/>
   <circle id="svg_140" r="7" cy="693" cx="225" class="st7"/>
   <g id="svg_141">
    <circle r="4.9" cy="626.1" cx="236" class="st8" id="XMLID_217_"/>
    <circle r="4.9" cy="626.1" cx="236" class="st7" id="XMLID_212_"/>
   </g>
   <ellipse ry="2" rx="2" cy="619.2" cx="254.7" class="st7" transform="matrix(0.1602,-0.9871,0.9871,0.1602,-397.3029,771.4265) " id="XMLID_211_"/>
   <circle r="2.9" cy="632.4" cx="280.8" class="st12" id="XMLID_210_"/>
   <circle r="2.9" cy="636.4" cx="204.8" class="st12" id="XMLID_218_"/>
  </g>
  <g id="svg_142">
   <g id="svg_143">
    <path id="svg_144" d="m638.7,566.7c-20.6,36.8 -60,61.8 -105.2,61.8c-66.6,0 -120.5,-53.9 -120.5,-120.5c0,-61.9 46.7,-112.9 106.8,-119.7l-4.1,-24c-70.3,12.4 -123.7,73.8 -123.7,147.7c0,82.8 67.2,150 150,150c58.7,0 109.5,-33.7 134.2,-82.9l-37.5,-12.4z" class="st15"/>
    <path id="svg_145" d="m638.7,566.7c-20.6,36.8 -60,61.8 -105.2,61.8c-66.6,0 -120.5,-53.9 -120.5,-120.5c0,-61.9 46.7,-112.9 106.8,-119.7l-4.1,-24c-70.3,12.4 -123.7,73.8 -123.7,147.7c0,82.8 67.2,150 150,150c58.7,0 109.5,-33.7 134.2,-82.9l-37.5,-12.4z" class="st7"/>
   </g>
   <g id="svg_146">
    <path id="svg_147" d="m555.2,728l-88,0l0,-94c0,-24.3 19.7,-44 44,-44l0,0c24.3,0 44,19.7 44,44l0,94z" class="st5"/>
    <g id="svg_148">
     <circle id="svg_149" r="27" cy="633.5" cx="511.2" class="st19"/>
     <circle id="svg_150" r="12" cy="633.5" cx="511.2" class="st19"/>
    </g>
    <path id="svg_151" d="m555.2,728l-88,0l0,-94c0,-24.3 19.7,-44 44,-44l0,0c24.3,0 44,19.7 44,44l0,94z" class="st7"/>
    <g id="svg_152">
     <circle id="svg_153" r="27" cy="633.5" cx="511.2" class="st7"/>
     <circle id="svg_154" r="12" cy="633.5" cx="511.2" class="st20"/>
     <circle id="svg_155" r="12" cy="633.5" cx="511.2" class="st7"/>
    </g>
   </g>
   <g id="svg_156">
    <circle id="svg_157" r="27" cy="570" cx="661" class="st5"/>
    <circle id="svg_158" r="27" cy="570" cx="661" class="st7"/>
    <circle id="svg_159" r="12" cy="570" cx="661" class="st20"/>
    <circle id="svg_160" r="12" cy="570" cx="661" class="st7"/>
   </g>
  </g>
  <g id="svg_161">
   <g id="svg_162">
    <rect id="svg_163" height="34.5" width="40" class="st21" transform="matrix(0.9703,-0.2419,0.2419,0.9703,-55.8219,136.0328) " y="278.1" x="506.1"/>
    <path id="svg_164" d="m546.2,272.6l-48.7,12.1c-2,0.5 -4,-0.6 -4.7,-2.5l-5.9,-15.5l60.2,-15l2.1,16.5c0.3,2 -1,3.9 -3,4.4z" class="st5"/>
    <rect id="svg_165" height="200" width="54" class="st5" transform="matrix(0.9703,-0.2419,0.2419,0.9703,-82.5019,146.2563) " y="309.1" x="527.4"/>
    <rect id="svg_166" height="200" width="54" class="st7" transform="matrix(0.9703,-0.2419,0.2419,0.9703,-82.5019,146.2563) " y="309.1" x="527.4"/>
    <rect id="svg_167" height="23.5" width="54" class="st20" transform="matrix(0.9703,-0.2419,0.2419,0.9703,-102.5821,153.9767) " y="483" x="548.8"/>
    <rect id="svg_168" height="23.5" width="54" class="st7" transform="matrix(0.9703,-0.2419,0.2419,0.9703,-102.5821,153.9767) " y="483" x="548.8"/>
    <rect id="svg_169" height="34.5" width="40" class="st7" transform="matrix(0.9703,-0.2419,0.2419,0.9703,-55.8219,136.0328) " y="278.1" x="506.1"/>
    <path id="svg_170" d="m546.2,272.6l-48.7,12.1c-2,0.5 -4,-0.6 -4.7,-2.5l-5.9,-15.5l60.2,-15l2.1,16.5c0.3,2 -1,3.9 -3,4.4z" class="st7"/>
   </g>
   <line id="svg_171" y2="458.6" x2="581.2" y1="435.9" x1="575.5" class="st7"/>
   <line id="svg_172" y2="402.3" x2="567.2" y1="317.9" x1="546.1" class="st7"/>
   <line id="svg_173" y2="302.2" x2="537" y1="284.8" x1="532.7" class="st7"/>
  </g>
  <g id="svg_174">
   <circle id="svg_175" r="27" cy="376" cx="515" class="st5"/>
   <circle id="svg_176" r="27" cy="376" cx="515" class="st7"/>
   <circle id="svg_177" r="12" cy="376" cx="515" class="st20"/>
   <circle id="svg_178" r="12" cy="376" cx="515" class="st7"/>
  </g>
  <g id="svg_179">
   <path id="svg_180" d="m716,533.7l-162.7,43.9c-3.7,1 -7.6,-1.2 -8.6,-4.9l0,0c-1,-3.7 1.2,-7.6 4.9,-8.6l162.7,-43.9c3.7,-1 7.6,1.2 8.6,4.9l0,0c1,3.7 -1.2,7.5 -4.9,8.6z" class="st5"/>
   <path id="svg_181" d="m716,533.7l-162.7,43.9c-3.7,1 -7.6,-1.2 -8.6,-4.9l0,0c-1,-3.7 1.2,-7.6 4.9,-8.6l162.7,-43.9c3.7,-1 7.6,1.2 8.6,4.9l0,0c1,3.7 -1.2,7.5 -4.9,8.6z" class="st7"/>
   <polygon id="svg_182" points="632.2,541.8 557.8,561.9 558.9,553.3 627,534.9  " class="st20"/>
   <polygon id="svg_183" points="632.2,541.8 557.8,561.9 558.9,553.3 627,534.9  " class="st7"/>
  </g>
  <line y2="770" x2="929" y1="770" x1="125" class="st22" id="XMLID_207_"/>
  <path d="m782.1,766l0,0c-10.5,0 -19,-8.5 -19,-19l0,-149l38,0l0,149c0,10.5 -8.5,19 -19,19z" class="st7" id="XMLID_232_"/>
  <g id="svg_184">
   <path id="svg_185" d="m900,741l-167,0l0,14l29.1,0c2.7,7.9 10.1,13.5 18.9,13.5s16.2,-5.6 18.9,-13.5l30,0c2.5,8.1 10.1,14 19.1,14s16.5,-5.9 19.1,-14l31.9,0l0,-14z" class="st15"/>
   <path id="svg_186" d="m900,741l-167,0l0,14l29.1,0c2.7,7.9 10.1,13.5 18.9,13.5s16.2,-5.6 18.9,-13.5l30,0c2.5,8.1 10.1,14 19.1,14s16.5,-5.9 19.1,-14l31.9,0l0,-14z" class="st7"/>
  </g>
 </g>
</svg>